<?xml version="1.0" encoding="UTF-8"?><svg id="Layer_1" xmlns="http://www.w3.org/2000/svg" viewBox="0 0 2486.23 1877.66"><defs><style>.cls-1{fill:#cecece;}.cls-2{opacity:.5;}.cls-3{fill:#fff;fill-rule:evenodd;}</style></defs><g class="cls-2"><path class="cls-1" d="M914.55,1110.44c30.98-2.24,56.88-4.25,57.56-4.47,.99-.32,1.19-52.01,.99-256.02l-.25-255.62-64.23-30.96c-35.33-17.03-64.56-30.97-64.97-30.98-.41-.01-.74,131.23-.74,291.64v291.65l7.66-.59c4.21-.32,33-2.42,63.98-4.66Zm627.49,0c30.98,2.24,59.77,4.34,63.98,4.66l7.66,.59v-291.65c0-160.41-.33-291.65-.74-291.64-.41,0-29.65,13.95-64.97,30.99l-64.23,30.98-.25,255.6c-.2,204,0,255.69,.99,256.01,.68,.22,26.58,2.23,57.56,4.47Zm671.85,244.02c-225.52-87.93-575.73-145.43-911.48-149.66-21.47-.27-48.37-.63-59.78-.8-11.41-.17-43.87,0-72.14,.4-354.23,4.86-697.97,60.45-927.78,150.06-6.66,2.59-.6,1.8,18.77-2.46,213.2-46.93,468.36-77.63,738.56-88.84,83.56-3.47,112.09-3.96,228.27-3.96s144.71,.49,228.27,3.96c270.2,11.22,525.36,41.91,738.56,88.84,19.36,4.26,25.42,5.05,18.77,2.46Z"/></g><g class="cls-2"><path class="cls-1" d="M2226.76,1386.1c-.5,.02-19.36,29.57-41.91,65.66l-40.99,65.62-5.16-8.11c-2.84-4.46-21.3-33.99-41.02-65.62-21.62-34.67-36.44-57.52-37.34-57.51-.82,0-4.49,1.55-8.17,3.44-6.25,3.21-6.62,3.58-5.54,5.58,.64,1.19,20.65,33.45,44.47,71.7l43.32,69.55,.68,49.33,.68,49.32h16.17l.56-49.18,.56-49.19,44.06-71.05c24.23-39.08,44.06-71.57,44.06-72.21,0-1.1-12.44-7.44-14.41-7.34Zm-523.34,210.98c-81.79,62.07-193.73-12.65-168.73-112.63,17.31-69.22,101.19-101.7,162.08-62.75,5.76,3.69,5.41,3.73,12.34-1.63,7.59-5.88,7.6-5.57-.25-10.63-26.65-17.19-57.81-24.91-86.19-21.35-102.38,12.84-145.44,139.38-72.32,212.5,44.51,44.51,112.59,48.97,164.61,10.78,8.8-6.46,8.57-5.16,2.36-13.21-6.08-7.87-5.03-7.79-13.9-1.07Zm59.47-207.07v245.07h17.79v-245.07h-17.79Zm55.34,0v17.79h96.84v227.28h16.8v-227.28h96.84v-17.79h-210.48Z"/></g><path class="cls-3" d="M1096.83,449.37l.27-21,.27-21,55.09-.26,55.09-.25v-78.99c0-43.44-.33-79.18-.74-79.42-.41-.24-53.21,42.99-117.35,96.05l-116.6,96.48,.4,332.24c.34,284.08,.19,332.3-.99,332.69-.76,.25-26.73,2.28-57.71,4.52s-59.77,4.34-63.98,4.66l-7.66,.59v-292.23c0-160.73-.38-292.08-.84-291.91-.46,.18-54.04,37.02-119.07,81.85l-118.22,81.52v172.93c-.01,95.11-.31,201.87-.67,237.25l-.65,64.32-10.95,3.25c-114.93,34.02-231.71,83.89-327.1,139.68-10.29,6.02-18.29,11.08-17.78,11.25,.51,.17,11.15-3.27,23.65-7.65,257.72-90.28,588.01-143.1,916.03-146.49l19.76-.2,.25-359.94,.25-359.94h-110.72Zm1021.81,823.7c-77.56-39-176.73-78.08-256.02-100.88l-9.48-2.73-.65-68.21c-.36-37.52-.66-144.29-.66-237.27v-169.06l-118.23-81.52c-65.02-44.84-118.6-81.67-119.06-81.85-.47-.18-.85,129.59-.85,291.91v292.23l-7.66-.59c-4.21-.32-33.01-2.42-63.98-4.66-30.98-2.24-56.95-4.27-57.71-4.53-1.19-.39-1.31-48.38-.89-332.7l.49-332.25-110.27-91.13c-60.65-50.12-113.22-93.57-116.82-96.56-3.59-2.99-6.82-5.15-7.16-4.81-.34,.35-.62,36.13-.62,79.51v78.89h108.7v42.49h-108.7l.25,359.94,.25,359.94,19.27,.2c329.07,3.46,658.55,56.12,916.52,146.49,12.5,4.38,23.13,7.82,23.63,7.66,2.44-.82-51.77-31.14-90.32-50.53Z"/><path class="cls-3" d="M1173.95,1502.29c-40.44-3.33-52.05-8.84-62.33-29.6-24.27-48.98,45.59-82.91,119.98-58.26,8.9,2.95,8.51,3.15,12.37-6.21l2.91-7.06-4.1-1.53c-23.84-8.88-52.65-12.77-77.23-10.44-64,6.07-96.52,59.19-63.3,103.39,12.17,16.19,28.62,23.56,57.86,25.93,21.51,1.74,30.69,2.98,38.04,5.12,38.84,11.32,50.54,52.57,22.44,79.08-21.4,20.19-54.53,23.48-108.58,10.78-9.15-2.15-16.93-3.6-17.28-3.23s-1.99,3.68-3.64,7.34l-2.99,6.66,11.05,3.51c85.76,27.26,154.45,1.3,154.3-58.33-.1-39.85-27.35-62.87-79.51-67.17Zm-928.88-111.2v245.07h17.79v-134.39h92.89v-16.8h-92.89v-76.09h118.58v-17.79H245.07Zm675.91,228.27v-118.58h82.02v-16.8h-82.02v-75.1h122.53v-17.79h-140.32v245.07h149.21v-16.8h-131.43Zm460.98-228.27h-105.24v17.79h96.84v227.28h16.8v-227.28h96.84v-17.79h-105.24Zm-832.69,.42c-6.9-1.49-33.07-2.75-38.38-1.84-1.36,.23-5.58,.92-9.39,1.54-75.24,12.14-121.95,96.47-93.28,168.36,40.13,100.63,179.21,106.64,227.47,9.84,36.4-73.03-6.1-160.54-86.43-177.9Zm72.94,165.87c-38.71,84.54-156.03,85.27-195.42,1.22-37-78.95,33.05-166.88,119.3-149.75,65.75,13.06,103.99,87.67,76.12,148.53Zm183.12-5.36l-12.59-16.44,8.54-4.23c49.68-24.61,51.4-97.84,3.04-128.65-16.26-10.36-19.28-10.87-66.89-11.35l-40.76-.42v245.22h17.79v-94.86h60.16l36.29,47.19c19.96,25.95,36.38,47.31,36.49,47.47,.11,.15,5.17,.15,11.25,0l11.06-.28-25.9-33.6c-14.24-18.48-31.56-41-38.48-50.04Zm-60.98-28.53h-29.89v-114.74l31.87,.33c30.89,.32,32.05,.4,37.8,2.69,40.45,16.09,51.17,65.28,20.8,95.43-14.55,14.45-21.35,16.28-60.57,16.29Z"/></svg>